<svg xmlns="http://www.w3.org/2000/svg" width="23.475" height="23.474" viewBox="0 0 23.475 23.474">
  <g id="vecteezy_a-blue-box-with-an-arrow-pointing-to-it_50603092" transform="translate(0)">
    <path id="Path_25" data-name="Path 25" d="M133.906,226.135c.269-.289.313-.181.166-.719-.063-.23-.163-.553-.206-.79l6.372,1.738c-2.011,2.3-2.507,1.211.034,3.756-.2.173-.655.184-.9.874-.4-.229-1.526-1.7-1.893-1.707-.339,0-1.386,1.326-1.88,1.707a19.624,19.624,0,0,1-.605-2.145c-.1-.376-.2-.711-.293-1.084-.112-.434-.091-.792-.569-.78-.413.2-.244.414-.136.846.084.341.187.674.275,1.008.181.689.381,1.375.55,2.064.094.384.293,1.147.947.856a2.568,2.568,0,0,0,.544-.466c.067-.066.106-.1.16-.161l.043-.049.021-.025c.045-.051.04-.049.086-.1.061-.065.1-.1.161-.161a4.824,4.824,0,0,0,.653-.676c.2.132,1.153,1.13,1.456,1.433s.414.323.428.581c.066,1.216,0,2.659,0,3.9v5.868a1.838,1.838,0,0,0,.106.857,1.226,1.226,0,0,0,1.113.7h10.977a1.225,1.225,0,0,0,1.093-.833,2.638,2.638,0,0,0,.054-.513v-.677a.826.826,0,0,0-.028-.2c-.066-.171-.162-.153-.311-.211-.242.155-.333.032-.35.454a8.191,8.191,0,0,1-.01.82c-.088.553-.625.468-1.193.466h-9.616c-1.387,0-1.146-.1-1.146-2.109V234.2a19.489,19.489,0,0,1,.078-3.13c.2-.363.834-.262,1.343-.262.758,0,1.191.131,1.27-.367a.316.316,0,0,0-.352-.325c-.708-.036-.965.136-1.232-.143l-1.751-1.733c.082-.112.049-.049.115-.114l.842-.854a6.15,6.15,0,0,0,.612-.625c.6-.927-.9-1.107-1.616-1.294-.562-.148-1.132-.321-1.7-.459s-1.132-.3-1.66-.449c-.584-.16-1.122-.281-1.7-.454a1.038,1.038,0,0,0-.857-.019c-.5.311-.166.972-.017,1.58.086.349.117.568.524.577Z" transform="translate(-129.184 -219.991)" fill-rule="evenodd"/>
    <path id="Path_26" data-name="Path 26" d="M364.39,361.559c.205.3.011.349.594.348h6.546c1.4-.006,1.2.152,1.2,1.512v6.83c0,.483-.126.931.367.994a.3.3,0,0,0,.321-.288v-8.58a1.233,1.233,0,0,0-.765-1.081,3.613,3.613,0,0,0-1.161-.077h-6.19c-.163,0-.444-.016-.593,0C364.449,361.254,364.467,361.357,364.39,361.559Z" transform="translate(-349.948 -351.086)" fill-rule="evenodd"/>
    <path id="Path_27" data-name="Path 27" d="M548.019,195.9c0,.541-.123,1.192.321,1.192a.331.331,0,0,0,.367-.325V195.9C548.707,195.534,548.019,195.534,548.019,195.9Z" transform="translate(-525.233 -193.011)" fill-rule="evenodd"/>
    <path id="Path_28" data-name="Path 28" d="M548.076,262.732c0,.827-.127,1.192.413,1.192.177,0,.249-.154.275-.358v-.742a.349.349,0,0,0-.688-.091Z" transform="translate(-525.29 -256.818)" fill-rule="evenodd"/>
    <path id="Path_29" data-name="Path 29" d="M102.59,640.391c0,.245.146.336.369.366h.823c.354,0,.347-.687,0-.687C103.3,640.069,102.59,639.956,102.59,640.391Z" transform="translate(-100.023 -617.284)" fill-rule="evenodd"/>
    <path id="Path_30" data-name="Path 30" d="M169.31,640.4c0,.248.091.338.285.367h.862c.341,0,.425-.688-.045-.688-.65,0-1.1-.112-1.1.321Z" transform="translate(-163.717 -617.292)" fill-rule="evenodd"/>
    <path id="Path_31" data-name="Path 31" d="M163.24,138.311c0,.493.517.366,1.146.366.366,0,.366-.688,0-.688h-.8C163.382,138.02,163.24,138.1,163.24,138.311Z" transform="translate(-157.922 -137.99)" fill-rule="evenodd"/>
    <path id="Path_32" data-name="Path 32" d="M46,193.764c.03.2.113.345.321.345.493,0,.366-.517.366-1.146,0-.336-.688-.383-.688,0Z" transform="translate(-46 -190.212)" fill-rule="evenodd"/>
    <path id="Path_33" data-name="Path 33" d="M46,256.608c.031.21.13.31.413.31.384,0,.275-.733.275-1.146,0-.354-.688-.347-.688,0Z" transform="translate(-46 -250.178)" fill-rule="evenodd"/>
    <path id="Path_34" data-name="Path 34" d="M46,570.961c.031.21.13.31.413.31.384,0,.275-.733.275-1.146,0-.354-.688-.347-.688,0Z" transform="translate(-46 -550.274)" fill-rule="evenodd"/>
    <path id="Path_35" data-name="Path 35" d="M414.93,138.265c0,.536.358.413,1.146.413.354,0,.347-.688,0-.688h-.788C415.083,138.017,414.93,138.09,414.93,138.265Z" transform="translate(-398.196 -137.99)" fill-rule="evenodd"/>
    <path id="Path_36" data-name="Path 36" d="M100.57,138.265c0,.544.416.413,1.146.413.354,0,.347-.688,0-.688h-.788C100.723,138.017,100.57,138.09,100.57,138.265Z" transform="translate(-98.095 -137.99)" fill-rule="evenodd"/>
    <path id="Path_37" data-name="Path 37" d="M477.6,138.311c0,.493.516.366,1.146.366.354,0,.347-.688,0-.688h-.8C477.742,138.02,477.6,138.1,477.6,138.311Z" transform="translate(-458.023 -137.99)" fill-rule="evenodd"/>
    <path id="Path_38" data-name="Path 38" d="M46,507.971c.027.227.108.395.321.395.484,0,.366-.565.366-1.146,0-.366-.688-.366-.688,0Z" transform="translate(-46 -490.21)" fill-rule="evenodd"/>
    <path id="Path_39" data-name="Path 39" d="M226.518,138.678c.737,0,1.054.107,1.054-.366,0-.214-.108-.294-.294-.321h-.76A.344.344,0,1,0,226.518,138.678Z" transform="translate(-217.991 -137.99)" fill-rule="evenodd"/>
    <path id="Path_40" data-name="Path 40" d="M352.26,138.311c0,.474.317.366,1.055.366a.344.344,0,1,0,0-.688h-.76C352.368,138.017,352.26,138.1,352.26,138.311Z" transform="translate(-338.369 -137.99)" fill-rule="evenodd"/>
    <path id="Path_41" data-name="Path 41" d="M46,444.581v.734a.344.344,0,1,0,.688,0c0-.738.107-1.055-.366-1.055A.284.284,0,0,0,46,444.581Z" transform="translate(-46 -430.368)" fill-rule="evenodd"/>
    <path id="Path_42" data-name="Path 42" d="M46,319.261c.029.208.125.311.413.311.376,0,.275-.689.275-1.054a.344.344,0,1,0-.688,0Z" transform="translate(-46 -309.99)" fill-rule="evenodd"/>
    <path id="Path_43" data-name="Path 43" d="M289.5,138.678h.734a.344.344,0,0,0,0-.688H289.5A.344.344,0,0,0,289.5,138.678Z" transform="translate(-278.131 -137.99)" fill-rule="evenodd"/>
    <path id="Path_44" data-name="Path 44" d="M46,381.5v.734a.344.344,0,0,0,.688,0V381.5A.344.344,0,0,0,46,381.5Z" transform="translate(-46 -370.13)" fill-rule="evenodd"/>
    <path id="Path_45" data-name="Path 45" d="M46,138.265v.413a.486.486,0,1,0,.688-.688h-.325C46.181,138.005,46,138.065,46,138.265Z" transform="translate(-46 -137.99)" fill-rule="evenodd"/>
    <path id="Path_46" data-name="Path 46" d="M540.785,138.678a.344.344,0,1,0,.688,0v-.032c0-.642-.014-.655-.656-.656h-.032A.344.344,0,1,0,540.785,138.678Z" transform="translate(-517.999 -137.99)" fill-rule="evenodd"/>
    <path id="Path_47" data-name="Path 47" d="M46,632.785v.032c0,.642.014.656.656.656h.031a.486.486,0,0,0-.688-.688Z" transform="translate(-46 -609.999)" fill-rule="evenodd"/>
    <path id="Path_48" data-name="Path 48" d="M234.99,640.524c0,.318.127.4.324.412h.363a.344.344,0,1,0,0-.688c-.169,0-.688-.064-.688.275Z" transform="translate(-226.418 -617.463)" fill-rule="evenodd"/>
    <path id="Path_49" data-name="Path 49" d="M548.269,329.654c0,.392-.073.688.413.688.2,0,.259-.181.275-.363v-.324a.344.344,0,1,0-.688,0Z" transform="translate(-525.483 -320.623)" fill-rule="evenodd"/>
    <path id="Path_50" data-name="Path 50" d="M149.27,241.679a6.128,6.128,0,0,0,.227.85c.48-.012.458.346.569.78.1.373.194.707.293,1.084a19.6,19.6,0,0,0,.605,2.145c.493-.381,1.542-1.71,1.88-1.707.367,0,1.49,1.477,1.893,1.707.242-.69.7-.7.9-.874-2.54-2.545-2.045-1.458-.034-3.756l-6.37-1.738c.045.236.143.56.206.79C149.583,241.5,149.539,241.389,149.27,241.679Z" transform="translate(-144.548 -235.535)" fill="#231f20" fill-rule="evenodd"/>
  </g>
  <g id="SVGRepo_iconCarrier" transform="translate(1.819 1.987)">
    <path id="Path_22" data-name="Path 22" d="M0,18.384l1.839,1.839,8.273-8.273,8.273,8.273,1.839-1.839-8.273-8.273,8.273-8.273L18.384,0,10.112,8.273,1.839,0,0,1.839l8.273,8.273Z" transform="translate(0 0)" fill="red" fill-rule="evenodd"/>
  </g>
</svg>
