  <svg id="pencil-mark-svgrepo-com" xmlns="http://www.w3.org/2000/svg" width="24" height="24" viewBox="0 0 24 24">
  <path id="Path_25" data-name="Path 25" d="M4.323,20.346l.19-.443A4.1,4.1,0,0,1,2,16.1c0-2.42,1.895-4.116,3.727-5.756a10.835,10.835,0,0,0,3.21-3.838,7.746,7.746,0,0,0,4-3.256l-.866-.5a6.673,6.673,0,0,1-2.95,2.6,2.5,2.5,0,0,0-.433-1.291A2.56,2.56,0,0,0,6.5,3C4.7,3,3,4.336,3,5.75a1,1,0,0,0,.3.719A3.787,3.787,0,0,0,5.849,7H6a9.083,9.083,0,0,0,1.654-.147A13.965,13.965,0,0,1,5.06,9.6C3.157,11.3,1,13.233,1,16.1a5.075,5.075,0,0,0,3.224,4.772,1.357,1.357,0,0,1,.1-.525ZM6,6H5.845C4.726,6.006,4.1,5.92,4,5.75,4,4.962,5.154,4,6.5,4a1.589,1.589,0,0,1,1.362.632,1.56,1.56,0,0,1,.246,1.09A7.8,7.8,0,0,1,6,6ZM21.536,3.52a.965.965,0,0,0-1.385-.03L7,16.644l-1.756,4.1a.371.371,0,0,0,.488.487l4.1-1.756L22.979,6.32a.965.965,0,0,0-.03-1.385ZM6.78,19.688l.962-2.24,1.28,1.28Zm3.015-1.6L8.382,16.674l10.3-10.3L20.093,7.79ZM21.952,5.932,20.8,7.083,19.386,5.669,20.555,4.5a.42.42,0,0,1,.6.007l.8.838A.42.42,0,0,1,21.952,5.932Z" fill="#00ebeb"/>
  <path id="Path_26" data-name="Path 26" d="M0,0H24V24H0Z" fill="none"/>
</svg>