<svg xmlns="http://www.w3.org/2000/svg" width="34" height="34" viewBox="0 0 34 34">
  <g id="heatmapstop">
    <g id="Layer_2" data-name="Layer 2" transform="translate(-0.113 -0.113)">
      <g id="invisible_box" data-name="invisible box">
        <rect id="Rectangle_50" data-name="Rectangle 50" width="34" height="34" transform="translate(0.113 0.113)" fill="none"/>
      </g>
      <g id="Q3_icons" data-name="Q3 icons" transform="translate(2.852 2.852)">
        <path id="Path_25" data-name="Path 25" d="M32.522,31.1A1.426,1.426,0,0,1,31.1,32.522H4V5.426a1.426,1.426,0,0,1,2.852,0V29.67H31.1A1.426,1.426,0,0,1,32.522,31.1ZM9.7,22.539a.642.642,0,0,0-.713.713V26.1a.642.642,0,0,0,.713.713h2.852a.642.642,0,0,0,.713-.713V23.252a.642.642,0,0,0-.713-.713Zm-.713-2.852H13.27a.642.642,0,0,0,.713-.713V14.7a.642.642,0,0,0-.713-.713H8.991a.642.642,0,0,0-.713.713v4.278a.642.642,0,0,0,.713.713Zm17.113,0h4.278a.642.642,0,0,0,.713-.713V14.7a.642.642,0,0,0-.713-.713H26.1a.642.642,0,0,0-.713.713v4.278a.642.642,0,0,0,.713.713Zm-8.557-7.844h4.278a.642.642,0,0,0,.713-.713V6.852a.642.642,0,0,0-.713-.713H17.548a.642.642,0,0,0-.713.713V11.13a.642.642,0,0,0,.713.713Zm-.713,16.4h5.7a.642.642,0,0,0,.713-.713v-5.7a.642.642,0,0,0-.713-.713h-5.7a.642.642,0,0,0-.713.713v5.7a.642.642,0,0,0,.713.713ZM18.261,14.7a.642.642,0,0,0-.713.713v2.852a.642.642,0,0,0,.713.713h2.852a.642.642,0,0,0,.713-.713V15.409a.642.642,0,0,0-.713-.713Zm9.27,8.557a.642.642,0,0,0-.713.713V25.4a.642.642,0,0,0,.713.713h1.426a.642.642,0,0,0,.713-.713V23.965a.642.642,0,0,0-.713-.713Zm0-12.835h1.426A.642.642,0,0,0,29.67,9.7V8.278a.642.642,0,0,0-.713-.713H27.531a.642.642,0,0,0-.713.713V9.7a.642.642,0,0,0,.713.713Zm-17.113,0h1.426a.642.642,0,0,0,.713-.713V8.278a.642.642,0,0,0-.713-.713H10.417a.642.642,0,0,0-.713.713V9.7a.642.642,0,0,0,.713.713Z" transform="translate(-4 -4)"/>
      </g>
    </g>
  </g>
  <g id="public-people-group-masses-svgrepo-com" transform="translate(-4.773 -62.927)">
    <path id="Path_29" data-name="Path 29" d="M103.629,175.2H94.042c-2.916,0-4.742,2.409-4.742,5.427v7.431h3.272V181.49a.508.508,0,0,1,.507-.507.479.479,0,0,1,.507.507v6.543h10.525V181.49a.507.507,0,0,1,1.014,0v6.543H108.4v-7.38C108.447,177.609,106.6,175.2,103.629,175.2Z" transform="translate(-77.188 -96.728)" fill="#002bff" stroke="#fff" stroke-width="1"/>
    <path id="Path_33" data-name="Path 33" d="M110.1,142.761a4.261,4.261,0,1,0,4.261-4.261A4.254,4.254,0,0,0,110.1,142.761Z" transform="translate(-92.713 -69.335)" fill="#002bff" stroke="#fff" stroke-width="1"/>
  </g>
  <path id="Path_22" data-name="Path 22" d="M0,18.614l1.862,1.862L10.238,12.1l8.376,8.376,1.862-1.862L12.1,10.238l8.376-8.376L18.614,0,10.238,8.376,1.862,0,0,1.862l8.376,8.376Z" transform="translate(7.475 6.336)" fill="red" fill-rule="evenodd"/>
</svg>
