<svg xmlns="http://www.w3.org/2000/svg" width="34" height="34" viewBox="0 0 34 34">
  <g id="Layer_2" data-name="Layer 2" transform="translate(-0.113 -0.113)">
    <g id="invisible_box" data-name="invisible box">
      <rect id="Rectangle_50" data-name="Rectangle 50" width="34" height="34" transform="translate(0.113 0.113)" fill="none"/>
    </g>
    <g id="Q3_icons" data-name="Q3 icons" transform="translate(2.852 2.852)">
      <path id="Path_25" data-name="Path 25" d="M32.522,31.1A1.426,1.426,0,0,1,31.1,32.522H4V5.426a1.426,1.426,0,0,1,2.852,0V29.67H31.1A1.426,1.426,0,0,1,32.522,31.1ZM9.7,22.539a.642.642,0,0,0-.713.713V26.1a.642.642,0,0,0,.713.713h2.852a.642.642,0,0,0,.713-.713V23.252a.642.642,0,0,0-.713-.713Zm-.713-2.852H13.27a.642.642,0,0,0,.713-.713V14.7a.642.642,0,0,0-.713-.713H8.991a.642.642,0,0,0-.713.713v4.278a.642.642,0,0,0,.713.713Zm17.113,0h4.278a.642.642,0,0,0,.713-.713V14.7a.642.642,0,0,0-.713-.713H26.1a.642.642,0,0,0-.713.713v4.278a.642.642,0,0,0,.713.713Zm-8.557-7.844h4.278a.642.642,0,0,0,.713-.713V6.852a.642.642,0,0,0-.713-.713H17.548a.642.642,0,0,0-.713.713V11.13a.642.642,0,0,0,.713.713Zm-.713,16.4h5.7a.642.642,0,0,0,.713-.713v-5.7a.642.642,0,0,0-.713-.713h-5.7a.642.642,0,0,0-.713.713v5.7a.642.642,0,0,0,.713.713ZM18.261,14.7a.642.642,0,0,0-.713.713v2.852a.642.642,0,0,0,.713.713h2.852a.642.642,0,0,0,.713-.713V15.409a.642.642,0,0,0-.713-.713Zm9.27,8.557a.642.642,0,0,0-.713.713V25.4a.642.642,0,0,0,.713.713h1.426a.642.642,0,0,0,.713-.713V23.965a.642.642,0,0,0-.713-.713Zm0-12.835h1.426A.642.642,0,0,0,29.67,9.7V8.278a.642.642,0,0,0-.713-.713H27.531a.642.642,0,0,0-.713.713V9.7a.642.642,0,0,0,.713.713Zm-17.113,0h1.426a.642.642,0,0,0,.713-.713V8.278a.642.642,0,0,0-.713-.713H10.417a.642.642,0,0,0-.713.713V9.7a.642.642,0,0,0,.713.713Z" transform="translate(-4 -4)"/>
    </g>
  </g>
  <g id="thermometer-svgrepo-com" transform="matrix(0.921, -0.391, 0.391, 0.921, -147.688, 69.363)">
    <path id="Path_25-2" data-name="Path 25" d="M218.29,14.885a2.377,2.377,0,1,0-4.754,0v7.354h4.754V14.885Z" transform="translate(-44.493 -11.808)" fill="#fff"/>
    <path id="Path_26" data-name="Path 26" d="M185.606,195.961v-9.613h-4.754v9.613a4.315,4.315,0,1,0,4.754,0Z" transform="translate(-11.809 -175.917)" fill="#ff7876"/>
    <g id="Group_12" data-name="Group 12" transform="translate(166.405)">
      <path id="Path_27" data-name="Path 27" d="M174.5,19.685V3.077a3.077,3.077,0,1,0-6.154,0V19.685a5.015,5.015,0,1,0,6.154,0ZM169.743,3.077a1.677,1.677,0,1,1,3.354,0V4.866h-1.444a.7.7,0,1,0,0,1.4H173.1v.726h-1.444a.7.7,0,1,0,0,1.4H173.1V9.731h-3.354V3.077ZM171.42,27.26a3.615,3.615,0,0,1-1.991-6.632.7.7,0,0,0,.314-.584V11.131H173.1v8.913a.7.7,0,0,0,.314.584,3.615,3.615,0,0,1-1.991,6.632Z" transform="translate(-166.405 0)"/>
      <path id="Path_28" data-name="Path 28" d="M246.263,409.9a.7.7,0,0,0-.7.7,1.373,1.373,0,0,1-1.371,1.371.7.7,0,0,0,0,1.4,2.775,2.775,0,0,0,2.771-2.771A.7.7,0,0,0,246.263,409.9Z" transform="translate(-239.177 -386.952)"/>
    </g>
  </g>
</svg>
